<svg width="450" height="100" viewBox="0 0 450 100" fill="none" xmlns="http://www.w3.org/2000/svg">
  <rect width="450" height="100" fill="#0B0F19" rx="10"/>
  
  <!-- Metallic S -->
  <path d="M 46 16 L 20 16 L 15 32 L 34 32 C 38 32 40 34 39 37 C 38 40 35 42 31 42 L 10 42 L 8 58 L 36 58 C 46 58 52 52 54 43 C 56 33 50 26 43 24 C 45 19 47 16 46 16 Z" fill="url(#s_g)"/>
  
  <!-- Metallic Red P -->
  <path d="M 44 16 L 76 16 C 85 16 91 21 89 30 C 87 39 79 44 70 44 L 52 44 L 48 58 L 33 58 L 44 16 Z M 56 30 L 69 30 C 73 30 75 28 75.5 26 C 76 24 75 23 72 23 L 58 23 L 56 30 Z" fill="url(#p_g)"/>
  
  <!-- SPORTDATA Text -->
  <text x="110" y="52" font-family="'Inter', 'Segoe UI', 'Arial Black', sans-serif" font-weight="900" font-size="34" fill="#FFFFFF" letter-spacing="2">SPORTDATA</text>
  
  <!-- Red Horizontal Line Left -->
  <line x1="110" y1="70" x2="175" y2="70" stroke="#E11D48" stroke-width="2.5" stroke-linecap="round"/>
  
  <!-- SOLUTION Subtext -->
  <text x="183" y="75" font-family="'Inter', 'Segoe UI', 'Arial Black', sans-serif" font-weight="800" font-size="13" fill="#E11D48" letter-spacing="4.5">SOLUTION</text>
  
  <!-- Red Horizontal Line Right -->
  <line x1="300" y1="70" x2="365" y2="70" stroke="#E11D48" stroke-width="2.5" stroke-linecap="round"/>

  <defs>
    <linearGradient id="s_g" x1="8" y1="16" x2="54" y2="58" gradientUnits="userSpaceOnUse">
      <stop stop-color="#FFFFFF"/>
      <stop offset="0.6" stop-color="#E2E8F0"/>
      <stop offset="1" stop-color="#94A3B8"/>
    </linearGradient>
    <linearGradient id="p_g" x1="33" y1="16" x2="89" y2="58" gradientUnits="userSpaceOnUse">
      <stop stop-color="#FF3355"/>
      <stop offset="0.5" stop-color="#E11D48"/>
      <stop offset="1" stop-color="#880015"/>
    </linearGradient>
  </defs>
</svg>
